<?xml version="1.0" standalone="no"?>
<!DOCTYPE svg PUBLIC "-//W3C//DTD SVG 20010904//EN"
 "http://www.w3.org/TR/2001/REC-SVG-20010904/DTD/svg10.dtd">
<svg version="1.0" xmlns="http://www.w3.org/2000/svg"
 width="512.000000pt" height="512.000000pt" viewBox="0 0 512.000000 512.000000"
 preserveAspectRatio="xMidYMid meet">

<g transform="translate(0.000000,512.000000) scale(0.100000,-0.100000)"
fill="#000000" stroke="none">
<path d="M2308 4524 c-504 -69 -954 -312 -1266 -684 -81 -97 -73 -87 -130
-171 -148 -223 -251 -482 -298 -754 -24 -135 -29 -450 -10 -590 94 -679 479
-1224 1070 -1515 271 -133 569 -200 893 -200 633 0 1219 283 1582 765 189 250
305 506 368 810 34 166 43 495 19 665 -48 333 -166 616 -377 907 -29 40 -57
69 -62 66 -6 -3 -7 -1 -3 5 9 15 -213 244 -231 238 -8 -3 -12 -2 -9 3 8 12
-19 33 -29 23 -5 -4 -5 -2 -1 5 10 18 -219 167 -369 239 -213 103 -437 167
-677 193 -127 14 -348 12 -470 -5z m407 -235 c566 -48 1014 -323 1315 -804
184 -296 271 -624 257 -980 -16 -419 -163 -786 -435 -1085 -97 -107 -198 -201
-187 -175 5 11 10 72 13 135 6 184 -37 330 -185 625 -88 176 -137 297 -159
397 -22 97 -22 270 -1 321 9 20 18 37 21 37 16 0 118 -46 157 -71 57 -36 81
-38 49 -4 -28 30 -153 95 -182 95 -11 0 -18 5 -16 13 8 22 64 19 142 -7 83
-28 96 -31 96 -17 0 13 -86 47 -152 61 -54 11 -57 13 -45 31 11 19 19 20 82
14 39 -3 88 -9 109 -12 27 -4 37 -3 32 5 -10 17 -75 32 -138 32 -32 0 -58 4
-58 9 0 4 11 39 25 76 13 37 34 109 46 160 l21 93 44 5 c59 6 119 47 145 99
17 33 20 54 17 101 -4 52 -9 64 -36 88 -27 24 -41 29 -82 29 -28 0 -67 -7 -87
-15 -20 -8 -37 -14 -38 -13 0 2 -9 30 -19 63 -68 227 -289 415 -581 491 -124
33 -372 44 -518 24 -207 -28 -356 -99 -494 -235 -78 -77 -99 -104 -132 -176
-22 -46 -43 -101 -46 -122 -6 -29 -11 -37 -23 -32 -40 15 -105 25 -130 19
-136 -33 -130 -235 10 -303 24 -11 56 -21 70 -21 24 0 27 -5 47 -92 12 -51 37
-128 55 -170 l34 -78 -52 0 c-29 0 -78 -5 -109 -11 -67 -14 -78 -35 -14 -26
147 20 171 20 191 -2 11 -12 17 -21 15 -22 -2 0 -17 -3 -34 -5 -53 -9 -164
-44 -171 -55 -12 -20 3 -19 72 4 96 33 140 39 155 21 9 -11 8 -15 -2 -19 -8
-2 -34 -12 -59 -20 -85 -30 -159 -82 -145 -104 3 -6 24 4 50 24 42 31 140 75
169 75 20 0 26 -33 26 -141 0 -180 -39 -319 -158 -569 -146 -305 -192 -451
-199 -627 -4 -94 -2 -132 10 -168 l16 -46 -42 31 c-64 47 -163 146 -234 235
-35 44 -75 94 -89 110 -43 54 -172 323 -208 433 -66 206 -81 311 -81 552 0
223 8 293 56 483 49 195 183 459 316 622 52 63 177 187 246 244 237 193 541
325 832 360 179 22 244 24 400 10z m115 -636 l75 -18 -36 -23 c-47 -29 -124
-112 -145 -156 l-17 -34 -41 21 c-56 30 -135 29 -175 -1 -35 -26 -41 -27 -41
-9 0 28 -81 125 -135 163 l-57 38 29 8 c147 42 398 47 543 11z m-618 -71 c66
-29 125 -86 161 -156 60 -117 35 -240 -69 -341 -67 -65 -142 -98 -239 -103
-65 -3 -91 0 -136 17 -125 47 -212 171 -211 299 1 148 78 248 229 296 67 22
203 16 265 -12z m1050 -9 c130 -61 193 -153 193 -283 0 -62 -5 -84 -27 -126
-35 -67 -115 -138 -186 -164 -165 -63 -370 26 -453 196 -28 57 -31 71 -27 127
14 175 159 291 353 284 65 -3 94 -9 147 -34z m-604 -197 c12 -10 22 -36 25
-67 7 -53 46 -150 75 -183 16 -18 16 -19 -13 -12 -99 22 -221 18 -326 -10 -12
-3 -9 9 13 55 17 35 32 88 37 127 6 56 13 71 36 92 25 21 36 24 82 20 30 -3
61 -12 71 -22z m-249 -390 c19 -21 74 -50 114 -60 26 -6 27 -9 27 -70 0 -47
-4 -67 -17 -78 -29 -25 -80 -48 -108 -48 -41 0 -26 -21 41 -57 91 -50 171 -45
257 14 41 29 47 43 17 43 -30 0 -85 25 -109 49 -16 16 -21 34 -21 75 0 61 6
68 73 86 48 13 107 65 107 95 0 21 5 19 56 -16 93 -64 172 -93 269 -100 l90
-6 -77 -1 c-43 -1 -78 -5 -78 -8 0 -19 24 -44 43 -45 18 -1 18 -2 4 -6 -11 -3
-18 -13 -16 -26 7 -84 -79 -184 -201 -234 -252 -105 -570 -68 -723 83 -41 40
-87 134 -66 134 5 0 9 9 9 20 0 15 -7 20 -27 21 -27 2 -27 2 -3 6 24 4 50 28
50 45 0 4 -30 9 -67 10 l-68 1 85 7 c70 5 97 12 155 42 39 20 88 49 110 66
l40 29 9 -26 c5 -14 16 -34 25 -45z m218 -246 c24 -14 43 -29 43 -33 0 -4 -17
-15 -37 -23 -41 -18 -98 -13 -121 9 -12 12 -9 18 20 38 18 13 35 27 37 32 4 9
3 10 58 -23z m-317 -1032 c29 -15 56 -40 78 -72 34 -51 40 -84 20 -115 -9 -15
-7 -24 10 -46 28 -35 28 -55 1 -89 -20 -26 -20 -28 -4 -46 22 -25 16 -73 -20
-145 -62 -128 -210 -225 -353 -232 l-77 -3 50 23 c109 52 148 121 149 262 0
131 -36 242 -106 320 -29 33 -30 38 -17 62 47 88 177 127 269 81z m695 -2 c53
-24 105 -76 105 -104 0 -8 -9 -25 -19 -36 -80 -86 -127 -307 -92 -429 18 -63
81 -133 132 -148 83 -25 26 -39 -73 -18 -123 26 -241 116 -296 225 -40 79 -47
118 -28 145 13 19 13 23 -5 42 -23 25 -25 69 -3 103 13 19 14 28 5 37 -38 38
28 148 114 188 54 25 100 24 160 -5z"/>
<path d="M2185 3410 c-39 -16 -67 -57 -69 -99 -1 -49 26 -89 79 -115 35 -17
42 -18 78 -5 54 19 80 56 80 113 0 84 -88 139 -168 106z m80 -75 c0 -13 -8
-21 -24 -23 -29 -4 -44 9 -35 32 10 25 59 18 59 -9z"/>
<path d="M2884 3409 c-76 -22 -104 -109 -56 -176 45 -63 142 -62 181 1 26 42
28 112 3 142 -33 42 -68 51 -128 33z m51 -79 c0 -20 -5 -25 -25 -25 -28 0 -41
32 -18 46 23 15 43 5 43 -21z"/>
</g>
</svg>
